<svg width="50" height="50" viewBox="0 0 50 50" fill="none" xmlns="http://www.w3.org/2000/svg">
<path d="M41.0714 33.9286H44.6428C45.59 33.9286 46.4984 33.5523 47.1682 32.8825C47.8379 32.2128 48.2142 31.3044 48.2142 30.3572V25C48.2142 24.0528 47.8379 23.1444 47.1682 22.4746C46.4984 21.8049 45.59 21.4286 44.6428 21.4286H41.0714C40.5978 21.4286 40.1436 21.6167 39.8087 21.9516C39.4738 22.2865 39.2856 22.7407 39.2856 23.2143V32.1429C39.2856 32.6165 39.4738 33.0707 39.8087 33.4056C40.1436 33.7405 40.5978 33.9286 41.0714 33.9286ZM41.0714 33.9286V36.6072C41.0714 38.5016 40.3188 40.3184 38.9793 41.6579C37.6397 42.9975 35.8229 43.75 33.9285 43.75M5.35707 21.4286H8.9285C9.4021 21.4286 9.85631 21.6167 10.1912 21.9516C10.5261 22.2865 10.7142 22.7407 10.7142 23.2143V32.1429C10.7142 32.6165 10.5261 33.0707 10.1912 33.4056C9.85631 33.7405 9.4021 33.9286 8.9285 33.9286H5.35707C4.40987 33.9286 3.50146 33.5523 2.83169 32.8825C2.16192 32.2128 1.78564 31.3044 1.78564 30.3572V25C1.78564 24.0528 2.16192 23.1444 2.83169 22.4746C3.50146 21.8049 4.40987 21.4286 5.35707 21.4286Z" stroke="black" stroke-linecap="round" stroke-linejoin="round"/>
<path d="M8.92871 21.4286V17.8571C8.92871 13.5947 10.6219 9.5069 13.6359 6.49292C16.6499 3.47894 20.7377 1.78571 25.0001 1.78571C29.2625 1.78571 33.3504 3.47894 36.3644 6.49292C39.3783 9.5069 41.0716 13.5947 41.0716 17.8571V21.4286M19.643 14.2857V19.6428M30.3573 14.2857V19.6428M19.643 26.7857C19.643 31.5357 30.3573 31.5357 30.3573 26.7857M29.4644 39.2857C30.6484 39.2857 31.7839 39.7561 32.6212 40.5933C33.4584 41.4305 33.9287 42.566 33.9287 43.75C33.9287 44.934 33.4584 46.0695 32.6212 46.9067C31.7839 47.7439 30.6484 48.2143 29.4644 48.2143H24.1073C22.9233 48.2143 21.7878 47.7439 20.9506 46.9067C20.1133 46.0695 19.643 44.934 19.643 43.75C19.643 42.566 20.1133 41.4305 20.9506 40.5933C21.7878 39.7561 22.9233 39.2857 24.1073 39.2857H29.4644Z" stroke="black" stroke-linecap="round" stroke-linejoin="round"/>
</svg>
