<svg width="50" height="50" viewBox="0 0 50 50" fill="none" xmlns="http://www.w3.org/2000/svg">
<path d="M24.9998 41.6667C29.4201 41.6667 33.6593 39.9107 36.785 36.7851C39.9106 33.6595 41.6665 29.4203 41.6665 25C41.6665 20.5797 39.9106 16.3405 36.785 13.2149C33.6593 10.0893 29.4201 8.33335 24.9998 8.33335C20.5796 8.33335 16.3403 10.0893 13.2147 13.2149C10.0891 16.3405 8.33317 20.5797 8.33317 25C8.33317 29.4203 10.0891 33.6595 13.2147 36.7851C16.3403 39.9107 20.5796 41.6667 24.9998 41.6667ZM24.9998 4.16669C27.7357 4.16669 30.4448 4.70556 32.9724 5.75253C35.5 6.7995 37.7967 8.33408 39.7312 10.2686C41.6658 12.2032 43.2004 14.4998 44.2473 17.0274C45.2943 19.5551 45.8332 22.2641 45.8332 25C45.8332 30.5254 43.6382 35.8244 39.7312 39.7314C35.8242 43.6384 30.5252 45.8334 24.9998 45.8334C13.479 45.8334 4.1665 36.4584 4.1665 25C4.1665 19.4747 6.36144 14.1756 10.2684 10.2686C14.1755 6.36162 19.4745 4.16669 24.9998 4.16669ZM26.0415 14.5834V25.5209L35.4165 31.0834L33.854 33.6459L22.9165 27.0834V14.5834H26.0415Z" fill="black"/>
</svg>
