<svg width="233" height="188" viewBox="0 0 233 188" fill="none" xmlns="http://www.w3.org/2000/svg">
<g clip-path="url(#clip0_50_984)">
<circle cx="4" cy="4" r="4" fill="#161D39" fill-opacity="0.8"/>
<circle cx="19" cy="4" r="4" fill="#161D39" fill-opacity="0.8"/>
<circle cx="34" cy="4" r="4" fill="#161D39" fill-opacity="0.8"/>
<circle cx="4" cy="19" r="4" fill="#161D39" fill-opacity="0.8"/>
<circle cx="19" cy="19" r="4" fill="#161D39" fill-opacity="0.8"/>
<circle cx="34" cy="19" r="4" fill="#161D39" fill-opacity="0.8"/>
<circle cx="4" cy="34" r="4" fill="#161D39" fill-opacity="0.8"/>
<circle cx="19" cy="34" r="4" fill="#161D39" fill-opacity="0.8"/>
<circle cx="34" cy="34" r="4" fill="#161D39" fill-opacity="0.8"/>
<circle cx="4" cy="49" r="4" fill="#161D39" fill-opacity="0.8"/>
<circle cx="19" cy="49" r="4" fill="#161D39" fill-opacity="0.8"/>
<circle cx="34" cy="49" r="4" fill="#161D39" fill-opacity="0.8"/>
<circle cx="4" cy="64" r="4" fill="#161D39" fill-opacity="0.8"/>
<circle cx="19" cy="64" r="4" fill="#161D39" fill-opacity="0.8"/>
<circle cx="34" cy="64" r="4" fill="#161D39" fill-opacity="0.8"/>
<circle cx="4" cy="79" r="4" fill="#161D39" fill-opacity="0.8"/>
<circle cx="19" cy="79" r="4" fill="#161D39" fill-opacity="0.8"/>
<circle cx="34" cy="79" r="4" fill="#161D39" fill-opacity="0.8"/>
<circle cx="4" cy="94" r="4" fill="#161D39" fill-opacity="0.8"/>
<circle cx="19" cy="94" r="4" fill="#161D39" fill-opacity="0.8"/>
<circle cx="34" cy="94" r="4" fill="#161D39" fill-opacity="0.8"/>
<circle cx="4" cy="109" r="4" fill="#161D39" fill-opacity="0.8"/>
<circle cx="19" cy="109" r="4" fill="#161D39" fill-opacity="0.8"/>
<circle cx="34" cy="109" r="4" fill="#161D39" fill-opacity="0.8"/>
<circle cx="4" cy="124" r="4" fill="#161D39" fill-opacity="0.8"/>
<circle cx="19" cy="124" r="4" fill="#161D39" fill-opacity="0.8"/>
<circle cx="34" cy="124" r="4" fill="#161D39" fill-opacity="0.8"/>
<circle cx="4" cy="139" r="4" fill="#161D39" fill-opacity="0.8"/>
<circle cx="19" cy="139" r="4" fill="#161D39" fill-opacity="0.8"/>
<circle cx="34" cy="139" r="4" fill="#161D39" fill-opacity="0.8"/>
<circle cx="4" cy="154" r="4" fill="#161D39" fill-opacity="0.8"/>
<circle cx="19" cy="154" r="4" fill="#161D39" fill-opacity="0.8"/>
<circle cx="34" cy="154" r="4" fill="#161D39" fill-opacity="0.8"/>
<circle cx="49" cy="154" r="4" fill="#161D39" fill-opacity="0.8"/>
<circle cx="64" cy="154" r="4" fill="#161D39" fill-opacity="0.8"/>
<circle cx="79" cy="154" r="4" fill="#161D39" fill-opacity="0.8"/>
<circle cx="94" cy="154" r="4" fill="#161D39" fill-opacity="0.8"/>
<circle cx="109" cy="154" r="4" fill="#161D39" fill-opacity="0.8"/>
<circle cx="124" cy="154" r="4" fill="#161D39" fill-opacity="0.8"/>
<circle cx="139" cy="154" r="4" fill="#161D39" fill-opacity="0.8"/>
<circle cx="154" cy="154" r="4" fill="#161D39" fill-opacity="0.8"/>
<circle cx="169" cy="154" r="4" fill="#161D39" fill-opacity="0.8"/>
<circle cx="184" cy="154" r="4" fill="#161D39" fill-opacity="0.8"/>
<circle cx="199" cy="154" r="4" fill="#161D39" fill-opacity="0.8"/>
<circle cx="214" cy="154" r="4" fill="#161D39" fill-opacity="0.8"/>
<circle cx="229" cy="154" r="4" fill="#161D39" fill-opacity="0.8"/>
<circle cx="4" cy="169" r="4" fill="#161D39" fill-opacity="0.8"/>
<circle cx="19" cy="169" r="4" fill="#161D39" fill-opacity="0.8"/>
<circle cx="34" cy="169" r="4" fill="#161D39" fill-opacity="0.8"/>
<circle cx="49" cy="169" r="4" fill="#161D39" fill-opacity="0.8"/>
<circle cx="64" cy="169" r="4" fill="#161D39" fill-opacity="0.8"/>
<circle cx="79" cy="169" r="4" fill="#161D39" fill-opacity="0.8"/>
<circle cx="94" cy="169" r="4" fill="#161D39" fill-opacity="0.8"/>
<circle cx="109" cy="169" r="4" fill="#161D39" fill-opacity="0.8"/>
<circle cx="124" cy="169" r="4" fill="#161D39" fill-opacity="0.8"/>
<circle cx="139" cy="169" r="4" fill="#161D39" fill-opacity="0.8"/>
<circle cx="154" cy="169" r="4" fill="#161D39" fill-opacity="0.8"/>
<circle cx="169" cy="169" r="4" fill="#161D39" fill-opacity="0.8"/>
<circle cx="184" cy="169" r="4" fill="#161D39" fill-opacity="0.8"/>
<circle cx="199" cy="169" r="4" fill="#161D39" fill-opacity="0.8"/>
<circle cx="214" cy="169" r="4" fill="#161D39" fill-opacity="0.8"/>
<circle cx="229" cy="169" r="4" fill="#161D39" fill-opacity="0.8"/>
<circle cx="4" cy="184" r="4" fill="#161D39" fill-opacity="0.8"/>
<circle cx="19" cy="184" r="4" fill="#161D39" fill-opacity="0.8"/>
<circle cx="34" cy="184" r="4" fill="#161D39" fill-opacity="0.8"/>
<circle cx="49" cy="184" r="4" fill="#161D39" fill-opacity="0.8"/>
<circle cx="64" cy="184" r="4" fill="#161D39" fill-opacity="0.8"/>
<circle cx="79" cy="184" r="4" fill="#161D39" fill-opacity="0.8"/>
<circle cx="94" cy="184" r="4" fill="#161D39" fill-opacity="0.8"/>
<circle cx="109" cy="184" r="4" fill="#161D39" fill-opacity="0.8"/>
<circle cx="124" cy="184" r="4" fill="#161D39" fill-opacity="0.8"/>
<circle cx="139" cy="184" r="4" fill="#161D39" fill-opacity="0.8"/>
<circle cx="154" cy="184" r="4" fill="#161D39" fill-opacity="0.8"/>
<circle cx="169" cy="184" r="4" fill="#161D39" fill-opacity="0.8"/>
<circle cx="184" cy="184" r="4" fill="#161D39" fill-opacity="0.8"/>
<circle cx="199" cy="184" r="4" fill="#161D39" fill-opacity="0.8"/>
<circle cx="214" cy="184" r="4" fill="#161D39" fill-opacity="0.8"/>
<circle cx="229" cy="184" r="4" fill="#161D39" fill-opacity="0.8"/>
</g>
<defs>
<clipPath id="clip0_50_984">
<rect width="233" height="188" fill="white"/>
</clipPath>
</defs>
</svg>
